<?xml version="1.0" encoding="UTF-8"?>
<svg width="100px" height="51px" viewBox="0 0 100 51" version="1.1" xmlns="http://www.w3.org/2000/svg" xmlns:xlink="http://www.w3.org/1999/xlink">
    <!-- Generator: Sketch 53.2 (72643) - https://sketchapp.com -->
    <title>logotype</title>
    <desc>Created with Sketch.</desc>
    <g id="Page-2" stroke="none" stroke-width="1" fill="none" fill-rule="evenodd">
        <g id="Product-page-1920-Copy-2" transform="translate(-80.000000, -35.000000)" fill="#000000" fill-rule="nonzero">
            <g id="logotype" transform="translate(80.000000, 35.000000)">
                <g id="Group" transform="translate(20.000000, 0.000000)">
                    <polygon id="Path" points="18.8980392 19.5206897 0.119607843 27.4931034 0.119607843 21.9241379 13.9343137 16.7068966 0.119607843 11.4896552 0.119607843 6.09655172 18.8980392 14.1862069"></polygon>
                    <polygon id="Path" points="31.2176471 0 31.2176471 33.5896552 25.7754902 33.5896552 25.7754902 0"></polygon>
                    <path d="M46.2284314,16.7655172 C46.2284314,22.0413793 47.4843137,24.2103448 50.4147059,24.2103448 C53.2852941,24.2103448 54.5411765,22.0413793 54.5411765,16.7655172 C54.5411765,11.4896552 53.2852941,9.37931034 50.4147059,9.37931034 C47.4843137,9.37931034 46.2284314,11.4896552 46.2284314,16.7655172 L46.2284314,16.7655172 Z M60.5215686,16.7655172 C60.5215686,24.3275862 56.8735294,28.4896552 50.4147059,28.4896552 C43.8960784,28.4896552 40.2480392,24.3275862 40.2480392,16.7655172 C40.2480392,9.26206897 43.8960784,5.04137931 50.4147059,5.04137931 C56.8735294,5.1 60.5215686,9.26206897 60.5215686,16.7655172 L60.5215686,16.7655172 Z" id="Shape"></path>
                </g>
                <g id="Group" transform="translate(0.000000, 42.000000)">
                    <polygon id="Path" points="1.54761905 0.6 3.51190476 6.84 5.47619048 0.6 7.02380952 0.6 4.28571429 8.64 2.73809524 8.64 0 0.6"></polygon>
                    <path d="M14.047619,0.42 C14.5833333,0.42 15.0595238,0.48 15.5357143,0.66 C16.0119048,0.84 16.3690476,1.08 16.6666667,1.44 C17.3214286,2.16 17.6785714,3.18 17.6785714,4.56 C17.6785714,5.94 17.3214286,6.96 16.6666667,7.74 C16.0119048,8.46 15.1190476,8.76 14.047619,8.76 C12.9166667,8.76 12.0833333,8.4 11.4285714,7.68 C10.7738095,6.96 10.4166667,5.88 10.4166667,4.56 C10.4166667,3.18 10.7738095,2.16 11.4285714,1.38 C12.0238095,0.78 12.9166667,0.42 14.047619,0.42 Z M16.1904762,4.62 C16.1904762,3.72 16.0119048,3 15.5952381,2.46 C15.2380952,1.98 14.702381,1.68 14.047619,1.68 C13.3928571,1.68 12.8571429,1.92 12.5,2.46 C12.0833333,2.94 11.9047619,3.66 11.9047619,4.62 C11.9047619,5.52 12.0833333,6.24 12.5,6.72 C12.9166667,7.2 13.3928571,7.44 14.047619,7.44 C14.702381,7.44 15.2380952,7.2 15.5952381,6.72 C15.952381,6.24 16.1904762,5.58 16.1904762,4.62 Z" id="Shape"></path>
                    <polygon id="Path" points="23.3928571 7.38 26.7261905 7.38 26.7261905 8.64 21.9642857 8.64 21.9642857 0.6 23.452381 0.6 23.452381 7.38"></polygon>
                    <path d="M31.9047619,0.6 L31.9047619,5.64 C31.9047619,6.3 32.0833333,6.78 32.3809524,7.08 C32.7380952,7.38 33.1547619,7.5 33.6904762,7.5 C34.2261905,7.5 34.6428571,7.38 35,7.08 C35.3571429,6.78 35.4761905,6.3 35.4761905,5.64 L35.4761905,0.6 L36.9642857,0.6 L36.9642857,5.64 C36.9642857,6.66 36.6666667,7.44 36.1309524,8.04 C35.5357143,8.58 34.7619048,8.88 33.6904762,8.88 C32.6785714,8.88 31.8452381,8.58 31.25,8.04 C30.6547619,7.5 30.4166667,6.72 30.4166667,5.64 L30.4166667,0.6 L31.9047619,0.6 Z" id="Path"></path>
                    <polygon id="Path" points="43.6904762 0.6 45.8928571 5.4 48.0952381 0.6 50.1190476 0.6 50.1190476 8.64 48.6309524 8.64 48.6309524 2.52 46.3690476 7.74 45.4166667 7.74 43.0357143 2.34 43.0357143 8.64 41.547619 8.64 41.547619 0.6"></polygon>
                    <polygon id="Path" points="54.9404762 0.6 60.1190476 0.6 60.1190476 1.86 56.3690476 1.86 56.3690476 3.96 59.8809524 3.96 59.8809524 5.22 56.3690476 5.22 56.3690476 7.32 60.1190476 7.32 60.1190476 8.58 54.9404762 8.58"></polygon>
                    <polygon id="Path" points="66.3095238 0.6 69.8809524 6.3 69.8809524 0.6 71.3690476 0.6 71.3690476 8.64 69.8809524 8.64 66.1904762 2.76 66.1904762 8.64 64.702381 8.64 64.702381 0.6"></polygon>
                    <polygon id="Path" points="75.0595238 0.6 81.547619 0.6 81.547619 1.86 79.047619 1.86 79.047619 8.64 77.5595238 8.64 77.5595238 1.86 75.0595238 1.86 75.0595238 0.6"></polygon>
                    <path d="M86.4880952,0.6 L88.3333333,0.6 L90.952381,8.64 L89.4047619,8.64 L88.8690476,6.9 L85.8928571,6.9 L85.297619,8.64 L83.75,8.64 L86.4880952,0.6 Z M86.25,5.82 L88.5119048,5.82 L87.3809524,2.34 L86.25,5.82 Z" id="Shape"></path>
                    <polygon id="Path" points="96.3690476 7.38 99.702381 7.38 99.702381 8.64 94.9404762 8.64 94.9404762 0.6 96.4285714 0.6 96.4285714 7.38"></polygon>
                </g>
            </g>
        </g>
    </g>
</svg>